<mxfile host="app.diagrams.net" modified="2023-04-04T18:51:03.815Z" agent="Mozilla/5.0 (Windows NT 10.0; Win64; x64) AppleWebKit/537.36 (KHTML, like Gecko) Chrome/111.0.0.0 Safari/537.36" etag="hKeCsmNKxKrN38BuFaiS" version="21.1.1" type="github">
  <diagram name="Page-1" id="4xuhvQjqA52v9uNUmas1">
    <mxGraphModel dx="1434" dy="788" grid="1" gridSize="10" guides="1" tooltips="1" connect="1" arrows="1" fold="1" page="1" pageScale="1" pageWidth="850" pageHeight="1100" math="0" shadow="0">
      <root>
        <mxCell id="0" />
        <mxCell id="1" parent="0" />
        <mxCell id="7PbP5t5x5OfYu_cqWDmC-59" style="edgeStyle=orthogonalEdgeStyle;rounded=0;orthogonalLoop=1;jettySize=auto;html=1;" edge="1" parent="1" source="7PbP5t5x5OfYu_cqWDmC-1" target="7PbP5t5x5OfYu_cqWDmC-2">
          <mxGeometry relative="1" as="geometry" />
        </mxCell>
        <mxCell id="7PbP5t5x5OfYu_cqWDmC-140" style="edgeStyle=orthogonalEdgeStyle;rounded=0;orthogonalLoop=1;jettySize=auto;html=1;" edge="1" parent="1" source="7PbP5t5x5OfYu_cqWDmC-1" target="7PbP5t5x5OfYu_cqWDmC-91">
          <mxGeometry relative="1" as="geometry">
            <Array as="points">
              <mxPoint x="330" y="290" />
            </Array>
          </mxGeometry>
        </mxCell>
        <mxCell id="7PbP5t5x5OfYu_cqWDmC-1" value="ΕΠΙΧΕΙΡΗΣΗ" style="rounded=0;whiteSpace=wrap;html=1;" vertex="1" parent="1">
          <mxGeometry x="270" y="125" width="120" height="60" as="geometry" />
        </mxCell>
        <mxCell id="7PbP5t5x5OfYu_cqWDmC-25" style="edgeStyle=orthogonalEdgeStyle;rounded=0;orthogonalLoop=1;jettySize=auto;html=1;entryX=0.5;entryY=0;entryDx=0;entryDy=0;shape=link;" edge="1" parent="1" source="7PbP5t5x5OfYu_cqWDmC-26" target="7PbP5t5x5OfYu_cqWDmC-24">
          <mxGeometry relative="1" as="geometry" />
        </mxCell>
        <mxCell id="7PbP5t5x5OfYu_cqWDmC-137" style="edgeStyle=orthogonalEdgeStyle;rounded=0;orthogonalLoop=1;jettySize=auto;html=1;" edge="1" parent="1" source="7PbP5t5x5OfYu_cqWDmC-2" target="7PbP5t5x5OfYu_cqWDmC-98">
          <mxGeometry relative="1" as="geometry" />
        </mxCell>
        <mxCell id="7PbP5t5x5OfYu_cqWDmC-2" value="ΕΡΕΥΝΑ" style="rounded=0;whiteSpace=wrap;html=1;" vertex="1" parent="1">
          <mxGeometry x="670" y="120" width="120" height="70" as="geometry" />
        </mxCell>
        <mxCell id="7PbP5t5x5OfYu_cqWDmC-131" style="edgeStyle=orthogonalEdgeStyle;rounded=0;orthogonalLoop=1;jettySize=auto;html=1;entryX=0.917;entryY=0.286;entryDx=0;entryDy=0;entryPerimeter=0;endArrow=oval;endFill=1;" edge="1" parent="1">
          <mxGeometry relative="1" as="geometry">
            <mxPoint x="780" y="63" as="sourcePoint" />
            <mxPoint x="780.04" y="123.01999999999998" as="targetPoint" />
          </mxGeometry>
        </mxCell>
        <mxCell id="7PbP5t5x5OfYu_cqWDmC-8" value="ΗΜ/ΝΙΑ&lt;br&gt;ΕΝΑΡΞΗΣ" style="ellipse;whiteSpace=wrap;html=1;" vertex="1" parent="1">
          <mxGeometry x="750" width="60" height="80" as="geometry" />
        </mxCell>
        <mxCell id="7PbP5t5x5OfYu_cqWDmC-128" style="edgeStyle=orthogonalEdgeStyle;rounded=0;orthogonalLoop=1;jettySize=auto;html=1;entryX=0.083;entryY=0.143;entryDx=0;entryDy=0;entryPerimeter=0;endArrow=oval;endFill=1;" edge="1" parent="1">
          <mxGeometry relative="1" as="geometry">
            <mxPoint x="655" y="71" as="sourcePoint" />
            <mxPoint x="679.96" y="121.00999999999999" as="targetPoint" />
          </mxGeometry>
        </mxCell>
        <mxCell id="7PbP5t5x5OfYu_cqWDmC-9" value="ΗΜ/ΝΙΑ&lt;br&gt;ΛΗΞΗΣ" style="ellipse;whiteSpace=wrap;html=1;" vertex="1" parent="1">
          <mxGeometry x="630" y="5" width="50" height="75" as="geometry" />
        </mxCell>
        <mxCell id="7PbP5t5x5OfYu_cqWDmC-127" style="edgeStyle=orthogonalEdgeStyle;rounded=0;orthogonalLoop=1;jettySize=auto;html=1;endArrow=oval;endFill=1;" edge="1" parent="1" source="7PbP5t5x5OfYu_cqWDmC-17" target="7PbP5t5x5OfYu_cqWDmC-2">
          <mxGeometry relative="1" as="geometry">
            <Array as="points">
              <mxPoint x="590" y="130" />
            </Array>
          </mxGeometry>
        </mxCell>
        <mxCell id="7PbP5t5x5OfYu_cqWDmC-17" value="ΠΡΟΥΠΟ&lt;br&gt;ΛΟΓΙΜΣΟΣ" style="ellipse;whiteSpace=wrap;html=1;direction=south;" vertex="1" parent="1">
          <mxGeometry x="550" y="5" width="80" height="80" as="geometry" />
        </mxCell>
        <mxCell id="7PbP5t5x5OfYu_cqWDmC-24" value="ΣΥΝΕΧΕΙΑ&lt;br&gt;ΕΡΕΥΝΑΣ" style="rounded=0;whiteSpace=wrap;html=1;" vertex="1" parent="1">
          <mxGeometry x="970" y="500" width="120" height="70" as="geometry" />
        </mxCell>
        <mxCell id="7PbP5t5x5OfYu_cqWDmC-27" value="" style="edgeStyle=orthogonalEdgeStyle;rounded=0;orthogonalLoop=1;jettySize=auto;html=1;entryX=0.5;entryY=0;entryDx=0;entryDy=0;" edge="1" parent="1" source="7PbP5t5x5OfYu_cqWDmC-2" target="7PbP5t5x5OfYu_cqWDmC-26">
          <mxGeometry relative="1" as="geometry">
            <mxPoint x="630" y="220" as="sourcePoint" />
            <mxPoint x="630" y="440" as="targetPoint" />
          </mxGeometry>
        </mxCell>
        <mxCell id="7PbP5t5x5OfYu_cqWDmC-26" value="&lt;font style=&quot;font-size: 11px;&quot;&gt;ΑΠΟΤΕΛΕΊΤΑΙ&lt;/font&gt;" style="rhombus;whiteSpace=wrap;html=1;" vertex="1" parent="1">
          <mxGeometry x="990" y="330" width="80" height="80" as="geometry" />
        </mxCell>
        <mxCell id="7PbP5t5x5OfYu_cqWDmC-32" value="ΗΜ/ΝΙΑ&lt;br&gt;ΕΝΑΡΞΗΣ" style="ellipse;whiteSpace=wrap;html=1;" vertex="1" parent="1">
          <mxGeometry x="1170" y="540" width="55" height="50" as="geometry" />
        </mxCell>
        <mxCell id="7PbP5t5x5OfYu_cqWDmC-83" style="edgeStyle=orthogonalEdgeStyle;rounded=0;orthogonalLoop=1;jettySize=auto;html=1;entryX=0.825;entryY=0;entryDx=0;entryDy=0;entryPerimeter=0;endArrow=oval;endFill=1;" edge="1" parent="1" source="7PbP5t5x5OfYu_cqWDmC-34" target="7PbP5t5x5OfYu_cqWDmC-24">
          <mxGeometry relative="1" as="geometry" />
        </mxCell>
        <mxCell id="7PbP5t5x5OfYu_cqWDmC-34" value="ΤΙΤΛΟΣ" style="ellipse;whiteSpace=wrap;html=1;" vertex="1" parent="1">
          <mxGeometry x="1130" y="375" width="50" height="80" as="geometry" />
        </mxCell>
        <mxCell id="7PbP5t5x5OfYu_cqWDmC-121" style="edgeStyle=orthogonalEdgeStyle;rounded=0;orthogonalLoop=1;jettySize=auto;html=1;entryX=1;entryY=0.75;entryDx=0;entryDy=0;endArrow=oval;endFill=1;" edge="1" parent="1" source="7PbP5t5x5OfYu_cqWDmC-36" target="7PbP5t5x5OfYu_cqWDmC-24">
          <mxGeometry relative="1" as="geometry" />
        </mxCell>
        <mxCell id="7PbP5t5x5OfYu_cqWDmC-36" value="ΗΜ/ΝΙΑ&lt;br&gt;ΛΗΞΗΣ" style="ellipse;whiteSpace=wrap;html=1;" vertex="1" parent="1">
          <mxGeometry x="1170" y="455" width="50" height="75" as="geometry" />
        </mxCell>
        <mxCell id="7PbP5t5x5OfYu_cqWDmC-42" value="ΠΡΟΥΠΟ&lt;br&gt;ΛΟΓΙΜΣΟΣ" style="ellipse;whiteSpace=wrap;html=1;direction=south;" vertex="1" parent="1">
          <mxGeometry x="1067.5" y="610" width="80" height="60" as="geometry" />
        </mxCell>
        <mxCell id="7PbP5t5x5OfYu_cqWDmC-125" style="edgeStyle=orthogonalEdgeStyle;rounded=0;orthogonalLoop=1;jettySize=auto;html=1;endArrow=oval;endFill=1;" edge="1" parent="1" source="7PbP5t5x5OfYu_cqWDmC-43" target="7PbP5t5x5OfYu_cqWDmC-24">
          <mxGeometry relative="1" as="geometry" />
        </mxCell>
        <mxCell id="7PbP5t5x5OfYu_cqWDmC-43" value="&lt;u style=&quot;font-size: 11px;&quot;&gt;&lt;b&gt;ΚΩΔΙΚΟΣ&lt;br&gt;ΣΥΣΧΕΤΙΣΗΣ&lt;br&gt;&lt;/b&gt;&lt;/u&gt;" style="ellipse;whiteSpace=wrap;html=1;" vertex="1" parent="1">
          <mxGeometry x="992.5" y="610" width="75" height="60" as="geometry" />
        </mxCell>
        <mxCell id="7PbP5t5x5OfYu_cqWDmC-132" style="edgeStyle=orthogonalEdgeStyle;rounded=0;orthogonalLoop=1;jettySize=auto;html=1;endArrow=oval;endFill=1;" edge="1" parent="1" source="7PbP5t5x5OfYu_cqWDmC-50" target="7PbP5t5x5OfYu_cqWDmC-2">
          <mxGeometry relative="1" as="geometry">
            <Array as="points">
              <mxPoint x="835" y="140" />
            </Array>
          </mxGeometry>
        </mxCell>
        <mxCell id="7PbP5t5x5OfYu_cqWDmC-50" value="ΤΙΤΛΟΣ" style="ellipse;whiteSpace=wrap;html=1;" vertex="1" parent="1">
          <mxGeometry x="810" width="50" height="80" as="geometry" />
        </mxCell>
        <mxCell id="7PbP5t5x5OfYu_cqWDmC-60" value="ΑΝΑΘΕΤΕΙ" style="rhombus;whiteSpace=wrap;html=1;" vertex="1" parent="1">
          <mxGeometry x="490" y="120" width="80" height="80" as="geometry" />
        </mxCell>
        <mxCell id="7PbP5t5x5OfYu_cqWDmC-114" style="edgeStyle=orthogonalEdgeStyle;rounded=0;orthogonalLoop=1;jettySize=auto;html=1;entryX=0.075;entryY=-0.067;entryDx=0;entryDy=0;entryPerimeter=0;endArrow=oval;endFill=1;" edge="1" parent="1">
          <mxGeometry relative="1" as="geometry">
            <mxPoint x="230" y="80" as="sourcePoint" />
            <mxPoint x="279" y="120.98000000000002" as="targetPoint" />
          </mxGeometry>
        </mxCell>
        <mxCell id="7PbP5t5x5OfYu_cqWDmC-62" value="&lt;b&gt;&lt;u&gt;ΕΠΩΝΥΜΙΑ&lt;/u&gt;&lt;/b&gt;" style="ellipse;whiteSpace=wrap;html=1;fillStyle=cross-hatch;" vertex="1" parent="1">
          <mxGeometry x="190" y="20" width="80" height="60" as="geometry" />
        </mxCell>
        <mxCell id="7PbP5t5x5OfYu_cqWDmC-112" style="orthogonalLoop=1;jettySize=auto;html=1;rounded=0;endArrow=oval;endFill=1;exitX=0.5;exitY=1;exitDx=0;exitDy=0;" edge="1" parent="1" source="7PbP5t5x5OfYu_cqWDmC-63">
          <mxGeometry relative="1" as="geometry">
            <mxPoint x="310" y="84" as="sourcePoint" />
            <mxPoint x="310" y="124" as="targetPoint" />
          </mxGeometry>
        </mxCell>
        <mxCell id="7PbP5t5x5OfYu_cqWDmC-63" value="ΔΙΕΥΘΥΝΣΗ" style="ellipse;whiteSpace=wrap;html=1;" vertex="1" parent="1">
          <mxGeometry x="270" y="30" width="80" height="50" as="geometry" />
        </mxCell>
        <mxCell id="7PbP5t5x5OfYu_cqWDmC-113" style="edgeStyle=orthogonalEdgeStyle;rounded=0;orthogonalLoop=1;jettySize=auto;html=1;endArrow=oval;endFill=1;" edge="1" parent="1" source="7PbP5t5x5OfYu_cqWDmC-64" target="7PbP5t5x5OfYu_cqWDmC-1">
          <mxGeometry relative="1" as="geometry" />
        </mxCell>
        <mxCell id="7PbP5t5x5OfYu_cqWDmC-64" value="ΣΤΑΘΕΡΟ" style="ellipse;whiteSpace=wrap;html=1;" vertex="1" parent="1">
          <mxGeometry x="350" y="25" width="70" height="60" as="geometry" />
        </mxCell>
        <mxCell id="7PbP5t5x5OfYu_cqWDmC-72" style="edgeStyle=orthogonalEdgeStyle;rounded=0;orthogonalLoop=1;jettySize=auto;html=1;endArrow=oval;endFill=1;" edge="1" parent="1" source="7PbP5t5x5OfYu_cqWDmC-65" target="7PbP5t5x5OfYu_cqWDmC-1">
          <mxGeometry relative="1" as="geometry">
            <Array as="points">
              <mxPoint x="150" y="130" />
            </Array>
          </mxGeometry>
        </mxCell>
        <mxCell id="7PbP5t5x5OfYu_cqWDmC-65" value="ΚΙΝΗΤΟ" style="ellipse;whiteSpace=wrap;html=1;" vertex="1" parent="1">
          <mxGeometry x="110" y="25" width="80" height="60" as="geometry" />
        </mxCell>
        <mxCell id="7PbP5t5x5OfYu_cqWDmC-129" style="edgeStyle=orthogonalEdgeStyle;rounded=0;orthogonalLoop=1;jettySize=auto;html=1;entryX=0.375;entryY=0.571;entryDx=0;entryDy=0;entryPerimeter=0;endArrow=oval;endFill=1;" edge="1" parent="1">
          <mxGeometry relative="1" as="geometry">
            <mxPoint x="710" y="52" as="sourcePoint" />
            <mxPoint x="715" y="122.97000000000003" as="targetPoint" />
            <Array as="points">
              <mxPoint x="715" y="52" />
            </Array>
          </mxGeometry>
        </mxCell>
        <mxCell id="7PbP5t5x5OfYu_cqWDmC-66" value="&lt;b&gt;&lt;u&gt;ΚΩΔΙΚΟΣ&lt;br&gt;ΕΡΕΥΝΑΣ&lt;br&gt;&lt;/u&gt;&lt;/b&gt;" style="ellipse;whiteSpace=wrap;html=1;" vertex="1" parent="1">
          <mxGeometry x="680" width="70" height="80" as="geometry" />
        </mxCell>
        <mxCell id="7PbP5t5x5OfYu_cqWDmC-86" value="ΙΣΤΟΡΙΚΟ&lt;br&gt;ΑΝΑΘΕΣΗΣ&lt;br&gt;ΕΡΕΥΝΑΣ" style="rounded=0;whiteSpace=wrap;html=1;" vertex="1" parent="1">
          <mxGeometry x="470" y="410" width="120" height="60" as="geometry" />
        </mxCell>
        <mxCell id="7PbP5t5x5OfYu_cqWDmC-92" value="" style="edgeStyle=orthogonalEdgeStyle;rounded=0;orthogonalLoop=1;jettySize=auto;html=1;entryX=0.5;entryY=1;entryDx=0;entryDy=0;" edge="1" parent="1" source="7PbP5t5x5OfYu_cqWDmC-86" target="7PbP5t5x5OfYu_cqWDmC-91">
          <mxGeometry relative="1" as="geometry">
            <mxPoint x="330" y="330" as="sourcePoint" />
            <mxPoint x="330" y="185" as="targetPoint" />
          </mxGeometry>
        </mxCell>
        <mxCell id="7PbP5t5x5OfYu_cqWDmC-91" value="ΕΧΕΙ" style="rhombus;whiteSpace=wrap;html=1;" vertex="1" parent="1">
          <mxGeometry x="490" y="250" width="80" height="80" as="geometry" />
        </mxCell>
        <mxCell id="7PbP5t5x5OfYu_cqWDmC-96" value="ΕΡΓΑΖΟΜΕΝΟΣ" style="rounded=0;whiteSpace=wrap;html=1;" vertex="1" parent="1">
          <mxGeometry x="670" y="470" width="120" height="70" as="geometry" />
        </mxCell>
        <mxCell id="7PbP5t5x5OfYu_cqWDmC-138" style="edgeStyle=orthogonalEdgeStyle;rounded=0;orthogonalLoop=1;jettySize=auto;html=1;" edge="1" parent="1" source="7PbP5t5x5OfYu_cqWDmC-98" target="7PbP5t5x5OfYu_cqWDmC-96">
          <mxGeometry relative="1" as="geometry" />
        </mxCell>
        <mxCell id="7PbP5t5x5OfYu_cqWDmC-98" value="&lt;font style=&quot;font-size: 11px;&quot;&gt;ΑΣΧΟΛΕΙΤΑΙ&lt;/font&gt;" style="rhombus;whiteSpace=wrap;html=1;" vertex="1" parent="1">
          <mxGeometry x="690" y="250" width="80" height="80" as="geometry" />
        </mxCell>
        <mxCell id="7PbP5t5x5OfYu_cqWDmC-120" style="edgeStyle=orthogonalEdgeStyle;rounded=0;orthogonalLoop=1;jettySize=auto;html=1;entryX=1;entryY=0.75;entryDx=0;entryDy=0;endArrow=oval;endFill=1;" edge="1" parent="1" source="7PbP5t5x5OfYu_cqWDmC-101" target="7PbP5t5x5OfYu_cqWDmC-86">
          <mxGeometry relative="1" as="geometry" />
        </mxCell>
        <mxCell id="7PbP5t5x5OfYu_cqWDmC-101" value="ΚΩΔΙΚΟΣ&lt;br&gt;ΕΡΕΥΝΑΣ" style="ellipse;whiteSpace=wrap;html=1;" vertex="1" parent="1">
          <mxGeometry x="580" y="482.5" width="60" height="50" as="geometry" />
        </mxCell>
        <mxCell id="7PbP5t5x5OfYu_cqWDmC-116" style="edgeStyle=orthogonalEdgeStyle;rounded=0;orthogonalLoop=1;jettySize=auto;html=1;entryX=-0.025;entryY=0.9;entryDx=0;entryDy=0;entryPerimeter=0;endArrow=oval;endFill=1;" edge="1" parent="1">
          <mxGeometry relative="1" as="geometry">
            <mxPoint x="405.5" y="485" as="sourcePoint" />
            <mxPoint x="470" y="464" as="targetPoint" />
            <Array as="points">
              <mxPoint x="406" y="470" />
              <mxPoint x="470" y="470" />
            </Array>
          </mxGeometry>
        </mxCell>
        <mxCell id="7PbP5t5x5OfYu_cqWDmC-102" value="ΚΩΔΙΚΟΣ &lt;br&gt;ΕΠΙΧ/ΣΗΣ" style="ellipse;whiteSpace=wrap;html=1;" vertex="1" parent="1">
          <mxGeometry x="365" y="485" width="75" height="50" as="geometry" />
        </mxCell>
        <mxCell id="7PbP5t5x5OfYu_cqWDmC-117" style="edgeStyle=orthogonalEdgeStyle;rounded=0;orthogonalLoop=1;jettySize=auto;html=1;entryX=0.25;entryY=1;entryDx=0;entryDy=0;endArrow=oval;endFill=1;" edge="1" parent="1" source="7PbP5t5x5OfYu_cqWDmC-103" target="7PbP5t5x5OfYu_cqWDmC-86">
          <mxGeometry relative="1" as="geometry">
            <Array as="points">
              <mxPoint x="475" y="480" />
              <mxPoint x="500" y="480" />
            </Array>
          </mxGeometry>
        </mxCell>
        <mxCell id="7PbP5t5x5OfYu_cqWDmC-103" value="ΗΜ/ΝΙΑ&lt;br&gt;ΑΝΑΘΕΣΗΣ" style="ellipse;whiteSpace=wrap;html=1;" vertex="1" parent="1">
          <mxGeometry x="440" y="485" width="70" height="50" as="geometry" />
        </mxCell>
        <mxCell id="7PbP5t5x5OfYu_cqWDmC-118" style="edgeStyle=orthogonalEdgeStyle;rounded=0;orthogonalLoop=1;jettySize=auto;html=1;entryX=0.625;entryY=1.017;entryDx=0;entryDy=0;entryPerimeter=0;endArrow=oval;endFill=1;" edge="1" parent="1" source="7PbP5t5x5OfYu_cqWDmC-104" target="7PbP5t5x5OfYu_cqWDmC-86">
          <mxGeometry relative="1" as="geometry" />
        </mxCell>
        <mxCell id="7PbP5t5x5OfYu_cqWDmC-104" value="ΗΜ/ΝΙΑ&lt;br&gt;ΟΛΟΚ/ΣΗΣ" style="ellipse;whiteSpace=wrap;html=1;" vertex="1" parent="1">
          <mxGeometry x="510" y="495" width="70" height="45" as="geometry" />
        </mxCell>
        <mxCell id="7PbP5t5x5OfYu_cqWDmC-106" style="edgeStyle=orthogonalEdgeStyle;rounded=0;orthogonalLoop=1;jettySize=auto;html=1;entryX=0;entryY=0.75;entryDx=0;entryDy=0;endArrow=oval;endFill=1;" edge="1" parent="1" source="7PbP5t5x5OfYu_cqWDmC-105" target="7PbP5t5x5OfYu_cqWDmC-86">
          <mxGeometry relative="1" as="geometry">
            <Array as="points">
              <mxPoint x="470" y="455" />
              <mxPoint x="470" y="455" />
            </Array>
          </mxGeometry>
        </mxCell>
        <mxCell id="7PbP5t5x5OfYu_cqWDmC-105" value="&lt;u&gt;&lt;b&gt;ΚΩΔΙΚΟΣ&lt;br&gt;ΙΣΤΟΡΙΚΟΥ&lt;/b&gt;&lt;/u&gt;" style="ellipse;whiteSpace=wrap;html=1;" vertex="1" parent="1">
          <mxGeometry x="365" y="415" width="70" height="50" as="geometry" />
        </mxCell>
        <mxCell id="7PbP5t5x5OfYu_cqWDmC-135" value="Attribute" style="ellipse;shape=doubleEllipse;margin=3;whiteSpace=wrap;html=1;align=center;" vertex="1" parent="1">
          <mxGeometry x="10" y="40" width="100" height="40" as="geometry" />
        </mxCell>
        <mxCell id="7PbP5t5x5OfYu_cqWDmC-142" value="" style="endArrow=none;html=1;rounded=0;exitX=1;exitY=0;exitDx=0;exitDy=0;endFill=0;startArrow=block;startFill=1;" edge="1" parent="1" source="7PbP5t5x5OfYu_cqWDmC-91">
          <mxGeometry width="50" height="50" relative="1" as="geometry">
            <mxPoint x="620" y="240" as="sourcePoint" />
            <mxPoint x="670" y="190" as="targetPoint" />
          </mxGeometry>
        </mxCell>
        <mxCell id="7PbP5t5x5OfYu_cqWDmC-144" value="" style="endArrow=block;html=1;rounded=0;exitX=0;exitY=0;exitDx=0;exitDy=0;startArrow=none;startFill=0;endFill=1;" edge="1" parent="1" source="7PbP5t5x5OfYu_cqWDmC-96" target="7PbP5t5x5OfYu_cqWDmC-91">
          <mxGeometry width="50" height="50" relative="1" as="geometry">
            <mxPoint x="520" y="390" as="sourcePoint" />
            <mxPoint x="570" y="340" as="targetPoint" />
          </mxGeometry>
        </mxCell>
        <mxCell id="7PbP5t5x5OfYu_cqWDmC-145" value="ΑΦΜ" style="ellipse;whiteSpace=wrap;html=1;align=center;" vertex="1" parent="1">
          <mxGeometry x="610" y="560" width="100" height="40" as="geometry" />
        </mxCell>
        <mxCell id="7PbP5t5x5OfYu_cqWDmC-146" value="ΗΜ/ΝΙΑ&lt;br&gt;ΓΕΝΝΗΣΗΣ" style="ellipse;whiteSpace=wrap;html=1;align=center;fontStyle=4;" vertex="1" parent="1">
          <mxGeometry x="800" y="560" width="100" height="40" as="geometry" />
        </mxCell>
        <mxCell id="7PbP5t5x5OfYu_cqWDmC-148" value="ΟΝΟΜ/ΜΟ" style="ellipse;whiteSpace=wrap;html=1;align=center;" vertex="1" parent="1">
          <mxGeometry x="710" y="560" width="90" height="40" as="geometry" />
        </mxCell>
        <mxCell id="7PbP5t5x5OfYu_cqWDmC-149" value="" style="endArrow=none;html=1;rounded=0;" edge="1" parent="1">
          <mxGeometry width="50" height="50" relative="1" as="geometry">
            <mxPoint x="750" y="600" as="sourcePoint" />
            <mxPoint x="710" y="640" as="targetPoint" />
          </mxGeometry>
        </mxCell>
        <mxCell id="7PbP5t5x5OfYu_cqWDmC-151" value="" style="endArrow=none;html=1;rounded=0;entryX=0.5;entryY=1;entryDx=0;entryDy=0;" edge="1" parent="1" target="7PbP5t5x5OfYu_cqWDmC-148">
          <mxGeometry width="50" height="50" relative="1" as="geometry">
            <mxPoint x="780" y="640" as="sourcePoint" />
            <mxPoint x="770" y="600" as="targetPoint" />
          </mxGeometry>
        </mxCell>
        <mxCell id="7PbP5t5x5OfYu_cqWDmC-152" value="Text" style="text;html=1;align=center;verticalAlign=middle;resizable=0;points=[];autosize=1;strokeColor=none;fillColor=none;" vertex="1" parent="1">
          <mxGeometry x="825" y="355" width="50" height="30" as="geometry" />
        </mxCell>
      </root>
    </mxGraphModel>
  </diagram>
</mxfile>
